<svg width="28" height="26" viewBox="0 0 28 26" fill="none" xmlns="http://www.w3.org/2000/svg">
<path d="M10.1153 26C11.582 26 12.782 24.8 12.782 23.3333H7.44864C7.44864 24.8 8.6353 26 10.1153 26ZM18.1153 18V11.3333C18.1153 7.24 15.9286 3.81333 12.1153 2.90667V2C12.1153 0.893333 11.222 0 10.1153 0C9.00864 0 8.1153 0.893333 8.1153 2V2.90667C4.28864 3.81333 2.1153 7.22667 2.1153 11.3333V18L0.395303 19.72C-0.444697 20.56 0.141969 22 1.32864 22H18.8886C20.0753 22 20.6753 20.56 19.8353 19.72L18.1153 18Z" fill="#5F6063"/>
<circle cx="19.5292" cy="10.08" r="7.33" fill="#5F6063" stroke="#BEC3C7" stroke-width="1.5"/>
<path d="M17.1648 13.616V12.238L19.8815 9.77723C20.0521 9.61318 20.1899 9.44586 20.2949 9.27524C20.3999 9.10463 20.4524 8.91434 20.4524 8.70436C20.4524 8.455 20.3736 8.25486 20.2161 8.10394C20.0587 7.94645 19.8487 7.86771 19.5862 7.86771C19.3106 7.86771 19.0842 7.96614 18.907 8.163C18.7364 8.35329 18.6347 8.60593 18.6019 8.9209L17.0172 8.70436C17.0566 8.35001 17.1517 8.03504 17.3026 7.75944C17.4601 7.48384 17.657 7.25089 17.8932 7.06059C18.1294 6.86373 18.3985 6.71609 18.7003 6.61766C19.0087 6.51267 19.3336 6.46017 19.6748 6.46017C19.9963 6.46017 20.308 6.50283 20.6099 6.58813C20.9117 6.67344 21.1808 6.80467 21.417 6.98185C21.6532 7.15902 21.8402 7.38213 21.978 7.65117C22.1224 7.9202 22.1946 8.23518 22.1946 8.59608C22.1946 8.84544 22.1618 9.07182 22.0961 9.27524C22.0305 9.4721 21.9387 9.65584 21.8205 9.82645C21.709 9.99706 21.5777 10.1578 21.4268 10.3087C21.2825 10.4531 21.1315 10.5975 20.9741 10.7418L19.3598 12.1789H22.2044V13.616H17.1648Z" fill="white"/>
</svg>
