<svg width="22" height="22" viewBox="0 0 22 22" fill="none" xmlns="http://www.w3.org/2000/svg">
<g clip-path="url(#clip0_3245_18700)">
<path d="M18.2188 2.74991V19.2499C18.2188 19.4322 18.1464 19.6071 18.0175 19.736C17.8885 19.865 17.7137 19.9374 17.5313 19.9374C17.349 19.9374 17.1741 19.865 17.0452 19.736C16.9162 19.6071 16.8438 19.4322 16.8438 19.2499V14.4374H12.7188C12.6215 14.4364 12.5255 14.4153 12.4367 14.3754C12.348 14.3354 12.2685 14.2776 12.2032 14.2054C12.1392 14.1333 12.0909 14.0487 12.0613 13.957C12.0317 13.8653 12.0215 13.7684 12.0313 13.6726C12.2443 11.9514 12.5832 10.2481 13.0454 8.57647C14.0766 4.93272 15.5118 2.74991 17.2993 2.10538C17.4028 2.06612 17.5144 2.05278 17.6243 2.06653C17.7341 2.08028 17.839 2.12069 17.9297 2.18425C18.0203 2.2478 18.0941 2.33258 18.1445 2.43117C18.1949 2.52976 18.2204 2.63919 18.2188 2.74991ZM10.9915 6.76319L10.304 2.63819C10.2893 2.54904 10.2572 2.46364 10.2095 2.38689C10.1619 2.31013 10.0995 2.24352 10.0261 2.19085C9.95271 2.13819 9.86964 2.10049 9.78166 2.07993C9.69368 2.05937 9.6025 2.05633 9.51335 2.071C9.33329 2.10063 9.17238 2.20058 9.06601 2.34885C8.95964 2.49712 8.91653 2.68157 8.94616 2.86163L9.50475 6.18741H7.90632V2.74991C7.90632 2.56757 7.83388 2.39271 7.70495 2.26377C7.57602 2.13484 7.40115 2.06241 7.21882 2.06241C7.03648 2.06241 6.86161 2.13484 6.73268 2.26377C6.60375 2.39271 6.53132 2.56757 6.53132 2.74991V6.18741H4.93288L5.49147 2.86163C5.50614 2.77247 5.50311 2.6813 5.48255 2.59332C5.46198 2.50534 5.42429 2.42226 5.37162 2.34885C5.31895 2.27543 5.25234 2.21311 5.17559 2.16544C5.09883 2.11776 5.01344 2.08567 4.92428 2.071C4.83513 2.05633 4.74396 2.05937 4.65597 2.07993C4.56799 2.10049 4.48492 2.13819 4.4115 2.19085C4.33809 2.24352 4.27576 2.31013 4.22809 2.38689C4.18042 2.46364 4.14833 2.54904 4.13366 2.63819L3.44616 6.76319C3.43833 6.79988 3.43544 6.83745 3.43757 6.87491C3.43856 7.75854 3.7483 8.61405 4.31321 9.29352C4.87813 9.97299 5.66271 10.4337 6.53132 10.596V19.2499C6.53132 19.4322 6.60375 19.6071 6.73268 19.736C6.86161 19.865 7.03648 19.9374 7.21882 19.9374C7.40115 19.9374 7.57602 19.865 7.70495 19.736C7.83388 19.6071 7.90632 19.4322 7.90632 19.2499V10.596C8.77492 10.4337 9.5595 9.97299 10.1244 9.29352C10.6893 8.61405 10.9991 7.75854 11.0001 6.87491C11.0015 6.84031 10.9986 6.80568 10.9915 6.77178V6.76319Z" fill="#5F6063" fill-opacity="0.7"/>
</g>
<defs>
<clipPath id="clip0_3245_18700">
<rect width="22" height="22" fill="white"/>
</clipPath>
</defs>
</svg>
