<svg width="16" height="18" viewBox="0 0 16 18" fill="#5F6063B2" xmlns="http://www.w3.org/2000/svg">
<path d="M15.2188 0.74991V17.2499C15.2188 17.4322 15.1464 17.6071 15.0175 17.736C14.8885 17.865 14.7137 17.9374 14.5313 17.9374C14.349 17.9374 14.1741 17.865 14.0452 17.736C13.9162 17.6071 13.8438 17.4322 13.8438 17.2499V12.4374H9.71882C9.62151 12.4364 9.52546 12.4153 9.43671 12.3754C9.34797 12.3354 9.26846 12.2776 9.20319 12.2054C9.13922 12.1333 9.09091 12.0487 9.06133 11.957C9.03174 11.8653 9.02152 11.7684 9.03132 11.6726C9.24431 9.95136 9.58324 8.2481 10.0454 6.57647C11.0766 2.93272 12.5118 0.74991 14.2993 0.105379C14.4028 0.0661213 14.5144 0.0527847 14.6243 0.0665317C14.7341 0.0802786 14.839 0.120692 14.9297 0.184248C15.0203 0.247805 15.0941 0.332575 15.1445 0.43117C15.1949 0.529765 15.2204 0.639191 15.2188 0.74991ZM7.99147 4.76319L7.30397 0.638191C7.2893 0.549036 7.25721 0.463643 7.20954 0.386889C7.16187 0.310135 7.09955 0.243522 7.02613 0.190854C6.95271 0.138186 6.86964 0.100493 6.78166 0.0799296C6.69368 0.0593657 6.6025 0.0563327 6.51335 0.0710039C6.33329 0.100634 6.17238 0.200577 6.06601 0.348848C5.95964 0.497119 5.91653 0.681572 5.94616 0.861629L6.50475 4.18741H4.90632V0.74991C4.90632 0.567574 4.83388 0.392705 4.70495 0.263774C4.57602 0.134843 4.40115 0.0624101 4.21882 0.0624101C4.03648 0.0624101 3.86161 0.134843 3.73268 0.263774C3.60375 0.392705 3.53132 0.567574 3.53132 0.74991V4.18741H1.93288L2.49147 0.861629C2.50614 0.772473 2.50311 0.681302 2.48255 0.593319C2.46198 0.505336 2.42429 0.422264 2.37162 0.348848C2.31895 0.275432 2.25234 0.213108 2.17559 0.165435C2.09883 0.117763 2.01344 0.085675 1.92428 0.0710039C1.83513 0.0563327 1.74396 0.0593657 1.65597 0.0799296C1.56799 0.100493 1.48492 0.138186 1.4115 0.190854C1.33809 0.243522 1.27576 0.310135 1.22809 0.386889C1.18042 0.463643 1.14833 0.549036 1.13366 0.638191L0.446159 4.76319C0.438331 4.79988 0.435441 4.83745 0.437566 4.87491C0.438562 5.75854 0.748295 6.61405 1.31321 7.29352C1.87813 7.97299 2.66271 8.4337 3.53132 8.596V17.2499C3.53132 17.4322 3.60375 17.6071 3.73268 17.736C3.86161 17.865 4.03648 17.9374 4.21882 17.9374C4.40115 17.9374 4.57602 17.865 4.70495 17.736C4.83388 17.6071 4.90632 17.4322 4.90632 17.2499V8.596C5.77492 8.4337 6.5595 7.97299 7.12442 7.29352C7.68934 6.61405 7.99907 5.75854 8.00007 4.87491C8.00145 4.84031 7.99857 4.80568 7.99147 4.77178V4.76319Z" fill="#5F6063" fill-opacity="0.7"/>
</svg>
