<svg width="113" height="34" viewBox="0 0 113 34" fill="none" xmlns="http://www.w3.org/2000/svg">
<path fill-rule="evenodd" clip-rule="evenodd" d="M46.5597 9.04304C46.8517 9.16255 46.9673 9.50194 46.8451 9.79291L46.6313 10.3024C46.5071 10.5983 46.1774 10.7492 45.8703 10.656C45.464 10.5327 45.1458 10.4462 44.9157 10.3966C44.5917 10.3267 44.1693 10.2918 43.6483 10.2918C42.9114 10.2918 42.2476 10.4982 41.6568 10.9111C41.066 11.3241 40.5991 11.9085 40.2561 12.6645C39.913 13.4204 39.7415 14.2939 39.7415 15.2849C39.7415 16.187 39.8908 17.0065 40.1893 17.7434C40.4879 18.4803 40.9199 19.0679 41.4853 19.5062C42.0507 19.9446 42.7209 20.1637 43.4959 20.1637C44.2903 20.1637 45.0561 20.0372 45.7934 19.7841C46.1027 19.6779 46.4517 19.7998 46.6007 20.0909L46.8703 20.6177C47.0271 20.924 46.904 21.3008 46.5811 21.4196C46.2462 21.5428 45.8689 21.6514 45.4493 21.7455C44.7696 21.898 44.1502 21.9742 43.5912 21.9742C42.2952 21.9742 41.1899 21.6788 40.2751 21.088C39.3603 20.4972 38.6711 19.6968 38.2073 18.6867C37.7436 17.6767 37.5117 16.5491 37.5117 15.304C37.5117 13.9953 37.7658 12.8233 38.274 11.7878C38.7822 10.7523 39.5033 9.94236 40.4371 9.35792C41.3709 8.77348 42.4604 8.48126 43.7055 8.48126C44.1629 8.48126 44.7219 8.55114 45.3826 8.69089C45.8194 8.78329 46.2117 8.90067 46.5597 9.04304ZM50.4329 22.5269L50.8254 21.4908C50.8795 21.348 50.8789 21.1904 50.8238 21.048L47.8666 13.4144C47.7387 13.0842 47.9134 12.7143 48.2496 12.6032L49.1389 12.3095C49.4564 12.2046 49.7998 12.371 49.9144 12.6851L51.4895 17.0039C51.6874 17.5467 52.4552 17.5462 52.6525 17.0032L54.1536 12.8718C54.2425 12.6272 54.475 12.4644 54.7353 12.4644H55.6491C56.0835 12.4644 56.3827 12.9002 56.2266 13.3055L52.434 23.1558C52.1799 23.8292 51.7257 24.4136 51.0714 24.9091C50.5565 25.2991 50.0003 25.5906 49.4028 25.7839C49.1198 25.8754 48.8227 25.7216 48.7044 25.4487L48.4121 24.7741C48.2758 24.4596 48.422 24.0959 48.7319 23.9493C49.0981 23.776 49.4079 23.61 49.6611 23.4512C50.0359 23.2162 50.2932 22.9081 50.4329 22.5269ZM61.9439 12.2166C62.8841 12.2166 63.7036 12.4167 64.4024 12.8169C65.1011 13.2171 65.6379 13.7857 66.0127 14.5226C66.3876 15.2595 66.575 16.1235 66.575 17.1145C66.575 18.0674 66.3844 18.9091 66.0032 19.6396C65.6221 20.3702 65.0789 20.9387 64.3738 21.3453C63.6686 21.7519 62.846 21.9552 61.9058 21.9552C61.5627 21.9552 61.1784 21.8789 60.7528 21.7265C60.4809 21.6291 60.2207 21.511 59.9721 21.3721C59.7366 21.2405 59.4342 21.2884 59.2735 21.5051C59.179 21.6324 59.0299 21.7074 58.8714 21.7074H58.6178C58.276 21.7074 57.9989 21.4304 57.9989 21.0886V9.02323C57.9989 8.70489 58.2404 8.43848 58.5573 8.40736L59.4541 8.31928C59.818 8.28354 60.1334 8.56947 60.1334 8.93516V11.6832C60.1334 12.1498 60.6357 12.4503 61.0869 12.3314C61.377 12.2548 61.6626 12.2166 61.9439 12.2166ZM61.9058 20.1066C62.6681 20.1066 63.2684 19.827 63.7067 19.268C64.1451 18.709 64.3642 17.9911 64.3642 17.1145C64.3642 16.1997 64.1483 15.4596 63.7163 14.8942C63.2843 14.3288 62.6808 14.0462 61.9058 14.0462C61.5754 14.0462 61.2673 14.097 60.9815 14.1986C60.7846 14.2686 60.5892 14.3627 60.3953 14.481C60.2263 14.584 60.1334 14.7731 60.1334 14.9711V19.2208C60.1334 19.4182 60.2254 19.6075 60.3957 19.7072C60.8503 19.9734 61.3536 20.1066 61.9058 20.1066ZM76.2373 17.0192V17.0293C76.2373 17.371 75.9602 17.6481 75.6185 17.6481H70.5282C70.1583 17.6481 69.8638 17.9742 69.971 18.3282C70.3338 19.5265 71.2728 20.1256 72.7878 20.1256C73.2833 20.1256 73.7248 20.0589 74.1123 19.9255C74.3488 19.8441 74.6148 19.7355 74.9104 19.5997C75.2387 19.4489 75.6315 19.5917 75.7698 19.9253L75.9696 20.4071C76.0813 20.6765 75.9913 20.9904 75.7393 21.137C74.8236 21.6698 73.8271 21.9361 72.7497 21.9361C71.0726 21.9361 69.7926 21.501 68.9095 20.6306C68.0265 19.7603 67.585 18.5756 67.585 17.0764C67.585 16.1108 67.7661 15.2627 68.1282 14.5321C68.4903 13.8016 69.0112 13.233 69.6909 12.8265C70.3706 12.4199 71.1742 12.2166 72.1017 12.2166C73.4612 12.2166 74.4903 12.6676 75.1891 13.5697C75.8879 14.4718 76.2373 15.6216 76.2373 17.0192ZM70.0251 15.5324C69.9066 15.8865 70.2028 16.2188 70.5762 16.2188H73.4528C73.8338 16.2188 74.1312 15.8742 74.0075 15.5139C73.8788 15.139 73.7009 14.834 73.4739 14.5988C73.1182 14.2304 72.6417 14.0462 72.0446 14.0462C71.4347 14.0462 70.9424 14.2367 70.5676 14.6179C70.3287 14.8608 70.1479 15.1657 70.0251 15.5324ZM80.1615 15.6377C80.0272 15.7505 79.9536 15.9187 79.9536 16.0941V21.0886C79.9536 21.4304 79.6765 21.7074 79.3347 21.7074H78.4379C78.0962 21.7074 77.8191 21.4304 77.8191 21.0886V13.0832C77.8191 12.7414 78.0962 12.4644 78.4379 12.4644H78.567C78.8082 12.4644 79.0274 12.6045 79.1286 12.8234L79.3293 13.2572C79.5 13.6264 79.9754 13.7334 80.3111 13.5037C80.5999 13.3061 80.9095 13.1185 81.24 12.9408C81.6309 12.7306 81.9898 12.59 82.3167 12.5189C82.593 12.4588 82.8422 12.656 82.9122 12.93L83.0342 13.4075C83.1342 13.7989 82.8344 14.1911 82.4486 14.3107C82.1932 14.3899 81.9205 14.505 81.6307 14.656C81.1029 14.9309 80.6132 15.2581 80.1615 15.6377ZM87.8144 17.0573C87.4726 17.0573 87.1956 17.3344 87.1956 17.6761V21.0886C87.1956 21.4304 86.9185 21.7074 86.5767 21.7074H85.6799C85.3381 21.7074 85.0611 21.4304 85.0611 21.0886V9.3669C85.0611 9.02513 85.3381 8.74807 85.6799 8.74807H88.9298C90.4291 8.74807 91.6392 9.08158 92.5603 9.74861C93.4815 10.4156 93.942 11.4479 93.942 12.8455C93.942 13.773 93.7038 14.5544 93.2274 15.1896C92.7509 15.8249 92.122 16.295 91.3406 16.5999C90.5593 16.9048 89.6985 17.0573 88.7583 17.0573H87.8144ZM88.8917 10.5395H87.8144C87.4726 10.5395 87.1956 10.8166 87.1956 11.1583V14.6661C87.1956 15.0079 87.4726 15.2849 87.8144 15.2849H88.8536C89.7048 15.2849 90.3814 15.0943 90.8833 14.7132C91.3851 14.332 91.6551 13.7476 91.6932 12.9599C91.6932 12.0832 91.455 11.4606 90.9785 11.0922C90.5021 10.7237 89.8065 10.5395 88.8917 10.5395ZM97.0319 14.5366C96.688 14.6583 96.2998 14.4905 96.1833 14.1448L95.9626 13.4897C95.8726 13.2226 95.9742 12.9257 96.2331 12.8143C96.5286 12.6872 96.8988 12.5705 97.3439 12.4644C98.0363 12.2992 98.5985 12.2166 99.0305 12.2166C99.742 12.2166 100.393 12.3627 100.984 12.6549C101.575 12.9472 102.042 13.3442 102.385 13.846C102.728 14.3479 102.899 14.9101 102.899 15.5327V21.0886C102.899 21.4304 102.622 21.7074 102.28 21.7074H101.779C101.594 21.7074 101.429 21.5902 101.369 21.4155C101.265 21.1159 100.882 21.0233 100.623 21.2064C100.406 21.3602 100.173 21.4954 99.9262 21.6121C99.4688 21.8281 99.0114 21.9361 98.554 21.9361C97.4868 21.9361 96.6768 21.6693 96.1242 21.1357C95.5715 20.6021 95.2952 19.8906 95.2952 19.0012C95.2952 18.0737 95.6096 17.3559 96.2385 16.8477C96.8674 16.3394 97.6964 16.0853 98.7256 16.0853H100.114C100.461 16.0853 100.751 15.7975 100.681 15.458C100.503 14.593 99.9657 14.1605 99.0686 14.1605C98.4201 14.1605 97.7412 14.2859 97.0319 14.5366ZM97.1628 19.0012C97.1628 19.3315 97.2835 19.6206 97.5249 19.8683C97.7663 20.1161 98.0966 20.24 98.5159 20.24C98.9098 20.24 99.3036 20.1447 99.6975 19.9541C100.019 19.7984 100.316 19.596 100.587 19.347C100.704 19.2388 100.765 19.0834 100.765 18.9235V18.1335C100.765 17.7917 100.488 17.5147 100.146 17.5147H98.6875C98.2174 17.5147 97.8457 17.6576 97.5726 17.9435C97.2994 18.2294 97.1628 18.5819 97.1628 19.0012ZM106.882 22.5269L107.275 21.4908C107.329 21.348 107.328 21.1904 107.273 21.048L104.316 13.4144C104.188 13.0842 104.363 12.7143 104.699 12.6032L105.588 12.3095C105.906 12.2046 106.249 12.371 106.364 12.6851L107.939 17.0039C108.137 17.5467 108.905 17.5462 109.102 17.0032L110.603 12.8718C110.692 12.6272 110.924 12.4644 111.185 12.4644H112.099C112.533 12.4644 112.832 12.9002 112.676 13.3055L108.883 23.1558C108.629 23.8292 108.175 24.4136 107.521 24.9091C107.006 25.2991 106.45 25.5906 105.852 25.7839C105.569 25.8754 105.272 25.7216 105.154 25.4487L104.861 24.7741C104.725 24.4596 104.871 24.0959 105.181 23.9493C105.548 23.776 105.857 23.61 106.11 23.4512C106.485 23.2162 106.743 22.9081 106.882 22.5269Z" fill="white"/>
<path fill-rule="evenodd" clip-rule="evenodd" d="M5.05664 28.8311C11.8003 35.404 22.7266 35.404 29.3849 28.8311L17.2634 16.8804L5.05664 28.8311Z" fill="#206AA2"/>
<path fill-rule="evenodd" clip-rule="evenodd" d="M5.05771 4.92957C-1.6859 11.5025 -1.6859 22.2581 5.05771 28.831L17.2645 16.8803L5.05771 4.92957Z" fill="#0F283C"/>
<path fill-rule="evenodd" clip-rule="evenodd" d="M29.3849 4.92967C22.7266 -1.64322 11.8003 -1.64322 5.05664 4.92967L17.2634 16.8804L29.3849 4.92967Z" fill="#DD0A35"/>
</svg>
