<svg width="21" height="22" viewBox="0 0 21 22" fill="none" xmlns="http://www.w3.org/2000/svg">
<path d="M3.3023 0.164955C3.27409 0.263709 3.25998 0.9832 3.27409 1.75912L3.31641 3.15578L7.66157 3.1981L12.0067 3.22632L11.9644 1.64626L11.9221 0.0520942L7.64747 0.00977111C4.19109 -0.0184441 3.37284 0.00977111 3.3023 0.164955Z" fill="#5F6063" fill-opacity="0.7"/>
<path d="M17.9734 1.74522C17.2257 2.12613 17.0706 2.59168 17.0706 4.34103V5.90698H18.707H20.3435L20.2871 4.21406C20.2448 2.54936 20.2448 2.52114 19.8216 2.09791C19.2855 1.57593 18.5801 1.43485 17.9734 1.74522Z" fill="#5F6063" fill-opacity="0.7"/>
<path d="M0.211615 1.85778C0.0282153 1.95654 0 3.31087 0 11.8037C0 19.2807 0.042323 21.6932 0.169292 21.8201C0.409122 22.06 14.8272 22.06 15.067 21.8201C15.194 21.6932 15.2363 19.2666 15.2363 11.8037C15.2363 3.22623 15.2081 1.94243 15.0247 1.87189C14.9118 1.82957 14.4039 1.77314 13.9102 1.77314L13.0073 1.74492L12.9508 2.56317C12.8944 3.21212 12.8098 3.45195 12.5135 3.76232L12.1326 4.14322H7.61814C3.11779 4.14322 3.11779 4.14322 2.79332 3.81875C2.55349 3.57892 2.45473 3.28266 2.3983 2.63371L2.32776 1.77314L1.36844 1.75903C0.84646 1.74492 0.324476 1.78724 0.211615 1.85778ZM12.7674 6.75314V7.10583L7.74511 7.14816C3.41405 7.17637 2.69456 7.14816 2.53938 6.96476C2.44063 6.8519 2.3983 6.65439 2.45473 6.54153C2.52527 6.35813 3.17422 6.32991 7.64635 6.35813L12.7674 6.40045V6.75314ZM12.7815 10.2095C12.838 10.3224 12.7957 10.5199 12.6969 10.6328C12.4289 10.9431 2.80743 10.9431 2.53938 10.6328C2.44063 10.5199 2.3983 10.3224 2.45473 10.2095C2.52527 10.0261 3.20244 9.99791 7.61814 9.99791C12.0338 9.99791 12.711 10.0261 12.7815 10.2095ZM12.711 13.7505C12.838 13.9057 12.8521 14.0327 12.7392 14.202C12.6123 14.4136 12.1044 14.4418 7.61814 14.4418C2.96261 14.4418 2.62403 14.4277 2.48295 14.1879C2.35598 13.9763 2.3842 13.8916 2.59581 13.7223C2.82153 13.5671 3.72442 13.5248 7.70278 13.5248C11.921 13.5248 12.5417 13.553 12.711 13.7505ZM12.7533 17.5173C12.8803 17.7289 12.8521 17.8136 12.6264 17.9828C12.3865 18.1521 11.5965 18.1804 7.68868 18.1662C5.13519 18.1662 2.89207 18.0957 2.72278 18.0252C2.53938 17.9687 2.3983 17.8277 2.3983 17.7148C2.3983 17.2069 2.63813 17.1928 7.67457 17.221C12.2455 17.2634 12.6123 17.2775 12.7533 17.5173Z" fill="#5F6063" fill-opacity="0.7"/>
<path d="M17.0706 12.2553V17.7573H18.6929H20.3153L20.2871 12.2836L20.2448 6.82388L18.6647 6.78156L17.0706 6.73924V12.2553Z" fill="#5F6063" fill-opacity="0.7"/>
<path d="M17.7619 20.2543C18.298 21.778 18.6084 22.2012 18.9187 21.8908C19.0034 21.8062 19.3138 21.0585 19.61 20.2402L20.132 18.7448H18.6789H17.2258L17.7619 20.2543Z" fill="#5F6063" fill-opacity="0.7"/>
</svg>
