<svg width="22" height="22" viewBox="0 0 22 22" fill="none" xmlns="http://www.w3.org/2000/svg">
<g clip-path="url(#clip0_3245_19156)">
<path d="M11.0016 0C7.8587 0 5.28955 2.56915 5.28955 5.71203C5.28955 8.8549 7.8587 11.4241 11.0016 11.4241C14.1445 11.4241 16.7136 8.8549 16.7136 5.71203C16.7136 2.56915 14.1445 0 11.0016 0Z" fill="#5F6063" fill-opacity="0.7"/>
<path d="M20.8032 15.9885C20.6535 15.6144 20.454 15.2652 20.2295 14.9409C19.0821 13.2447 17.3111 12.1223 15.3157 11.8479C15.0663 11.823 14.7919 11.8728 14.5923 12.0225C13.5447 12.7958 12.2975 13.1948 11.0005 13.1948C9.70338 13.1948 8.45624 12.7958 7.40861 12.0225C7.20905 11.8728 6.93467 11.798 6.68526 11.8479C4.68979 12.1223 2.89389 13.2447 1.77145 14.9409C1.54696 15.2652 1.34739 15.6393 1.19777 15.9885C1.12295 16.1382 1.14787 16.3128 1.22269 16.4625C1.42225 16.8117 1.67166 17.1609 1.89615 17.4602C2.24534 17.9341 2.61951 18.3582 3.04356 18.7572C3.39275 19.1064 3.79184 19.4307 4.19097 19.755C6.16147 21.2267 8.5311 21.9999 10.9755 21.9999C13.42 21.9999 15.7896 21.2266 17.7601 19.755C18.1592 19.4557 18.5583 19.1064 18.9075 18.7572C19.3066 18.3582 19.7057 17.9341 20.0549 17.4602C20.3043 17.1359 20.5289 16.8117 20.7284 16.4625C20.8531 16.3128 20.878 16.1382 20.8032 15.9885Z" fill="#5F6063" fill-opacity="0.7"/>
</g>
<defs>
<clipPath id="clip0_3245_19156">
<rect width="22" height="22" fill="white"/>
</clipPath>
</defs>
</svg>
