<svg width="21" height="21" viewBox="0 0 21 21" fill="#5F6063B2" xmlns="http://www.w3.org/2000/svg">
<g clip-path="url(#clip0_3245_18741)">
<path d="M20.0379 13.6089C19.8623 13.8217 19.6548 14.0133 19.4259 14.1677V16.552H19.7239C20.352 16.552 20.8576 16.0464 20.8629 15.4237V12.5444L20.0379 13.6089Z" fill="#5F6063" fill-opacity="0.7"/>
<path d="M15.0084 8.51576H18.0793C18.1697 8.51576 18.2655 8.50512 18.3613 8.48383V5.43957C18.3613 4.81156 17.8504 4.31128 17.2277 4.31128H1.13894C0.510924 4.31128 0.00532213 4.81688 0 5.43957V17.6432C0.00532213 18.2712 0.510924 18.7821 1.13894 18.7875H17.2277C17.8557 18.7821 18.3613 18.2712 18.3613 17.6432L18.356 14.5511C18.2655 14.5617 18.1697 14.5723 18.0739 14.5777H15.0084C13.3373 14.5723 11.9801 13.2152 11.9801 11.5441C11.9801 9.8729 13.3373 8.51576 15.0084 8.51576Z" fill="#5F6063" fill-opacity="0.7"/>
<path d="M19.7241 2.07544H3.63532C3.00731 2.08076 2.50171 2.59169 2.50171 3.2197V3.24631H17.228C18.4415 3.24631 19.4261 4.22558 19.4261 5.43902V7.66368L20.8631 5.81157V3.2197C20.8577 2.59169 20.3521 2.08076 19.7241 2.07544Z" fill="#5F6063" fill-opacity="0.7"/>
<path d="M20.8587 7.55225L20.0337 8.61667C19.7942 8.92536 19.4856 9.1755 19.1343 9.34048C18.8043 9.50015 18.4424 9.57998 18.0752 9.57998H15.0096C13.9239 9.5853 13.0458 10.4635 13.0458 11.5492C13.0458 12.6349 13.9239 13.513 15.0096 13.5184H18.0805C18.5169 13.513 18.9321 13.3108 19.1982 12.9649L20.864 10.8041L20.8587 7.55225ZM16.2018 12.0814H14.9245C14.6318 12.0814 14.3923 11.8419 14.3923 11.5492C14.3923 11.2564 14.6318 11.017 14.9245 11.017H16.2018C16.4945 11.017 16.734 11.2564 16.734 11.5492C16.734 11.8419 16.4945 12.0814 16.2018 12.0814Z" fill="#5F6063" fill-opacity="0.7"/>
</g>
<defs>
<clipPath id="clip0_3245_18741">
<rect width="20.8627" height="20.8627" fill="white"/>
</clipPath>
</defs>
</svg>
