<svg width="84" height="25" viewBox="0 0 84 25" fill="none" xmlns="http://www.w3.org/2000/svg">
<path fill-rule="evenodd" clip-rule="evenodd" d="M34.4779 6.69644C34.6941 6.78493 34.7797 7.03626 34.6893 7.25172L34.5309 7.62899C34.4389 7.84811 34.1948 7.95986 33.9674 7.89084C33.6665 7.79952 33.4309 7.73548 33.2605 7.69873C33.0206 7.64699 32.7078 7.62112 32.322 7.62112C31.7764 7.62112 31.2848 7.774 30.8473 8.07977C30.4098 8.38554 30.0641 8.81832 29.81 9.37812C29.556 9.93791 29.429 10.5847 29.429 11.3186C29.429 11.9866 29.5395 12.5934 29.7606 13.1391C29.9817 13.6848 30.3016 14.1199 30.7203 14.4445C31.1389 14.7691 31.6352 14.9314 32.2091 14.9314C32.7974 14.9314 33.3645 14.8377 33.9105 14.6502C34.1395 14.5716 34.3979 14.6619 34.5083 14.8775L34.7079 15.2675C34.824 15.4943 34.7328 15.7734 34.4937 15.8613C34.2457 15.9526 33.9664 16.033 33.6557 16.1027C33.1523 16.2156 32.6937 16.272 32.2797 16.272C31.3201 16.272 30.5015 16.0533 29.8241 15.6158C29.1467 15.1783 28.6363 14.5856 28.2929 13.8377C27.9495 13.0897 27.7778 12.2547 27.7778 11.3327C27.7778 10.3636 27.966 9.49572 28.3423 8.72894C28.7187 7.96216 29.2526 7.36239 29.9441 6.92961C30.6356 6.49682 31.4424 6.28043 32.3644 6.28043C32.7031 6.28043 33.117 6.33218 33.6063 6.43567C33.9297 6.50409 34.2202 6.59101 34.4779 6.69644ZM37.3461 16.6813L37.6367 15.9141C37.6767 15.8084 37.6763 15.6916 37.6355 15.5862L35.4457 9.93345C35.351 9.68897 35.4803 9.41501 35.7293 9.33279L36.3878 9.11528C36.6229 9.03762 36.8772 9.16078 36.9621 9.3934L38.1284 12.5915C38.275 12.9934 38.8435 12.9931 38.9896 12.591L40.1013 9.53169C40.1671 9.35054 40.3392 9.22994 40.532 9.22994H41.2087C41.5303 9.22994 41.7519 9.55266 41.6363 9.85284L38.8279 17.147C38.6397 17.6457 38.3034 18.0784 37.8188 18.4454C37.4376 18.7341 37.0257 18.95 36.5832 19.0931C36.3737 19.1609 36.1537 19.047 36.0661 18.8449L35.8496 18.3454C35.7487 18.1125 35.857 17.8432 36.0864 17.7346C36.3576 17.6063 36.587 17.4834 36.7745 17.3658C37.0521 17.1917 37.2426 16.9636 37.3461 16.6813ZM45.87 9.04647C46.5662 9.04647 47.173 9.19465 47.6905 9.49102C48.208 9.78738 48.6055 10.2084 48.883 10.7541C49.1605 11.2998 49.2993 11.9395 49.2993 12.6734C49.2993 13.379 49.1582 14.0023 48.8759 14.5433C48.5937 15.0843 48.1915 15.5053 47.6693 15.8063C47.1472 16.1074 46.538 16.2579 45.8418 16.2579C45.5877 16.2579 45.3031 16.2015 44.988 16.0886C44.7866 16.0165 44.594 15.929 44.4099 15.8262C44.2355 15.7287 44.0116 15.7642 43.8925 15.9246V15.9246C43.8226 16.0189 43.7121 16.0745 43.5948 16.0745H43.407C43.1539 16.0745 42.9487 15.8693 42.9487 15.6162V6.68177C42.9487 6.44603 43.1276 6.24876 43.3622 6.22571L44.0263 6.16049C44.2958 6.13402 44.5293 6.34576 44.5293 6.61655V8.65148C44.5293 8.99699 44.9013 9.21956 45.2354 9.13145C45.4502 9.0748 45.6617 9.04647 45.87 9.04647ZM45.8418 14.889C46.4063 14.889 46.8508 14.682 47.1754 14.2681C47.5 13.8541 47.6623 13.3225 47.6623 12.6734C47.6623 11.996 47.5023 11.4479 47.1824 11.0293C46.8626 10.6106 46.4157 10.4013 45.8418 10.4013C45.5972 10.4013 45.369 10.4389 45.1573 10.5142C45.0115 10.566 44.8668 10.6357 44.7233 10.7232C44.5981 10.7996 44.5293 10.9396 44.5293 11.0862V14.2331C44.5293 14.3793 44.5975 14.5194 44.7236 14.5933C45.0601 14.7905 45.4329 14.889 45.8418 14.889ZM56.4543 12.6028V12.6103C56.4543 12.8634 56.2492 13.0685 55.9961 13.0685H52.2267C51.9528 13.0685 51.7347 13.31 51.8141 13.5721C52.0828 14.4595 52.7781 14.9031 53.9 14.9031C54.2669 14.9031 54.5938 14.8537 54.8808 14.755C55.0559 14.6947 55.2529 14.6143 55.4718 14.5137C55.7149 14.402 56.0057 14.5077 56.1082 14.7548L56.2561 15.1116C56.3388 15.3111 56.2722 15.5435 56.0855 15.6521C55.4075 16.0466 54.6696 16.2438 53.8717 16.2438C52.6298 16.2438 51.682 15.9216 51.0281 15.2771C50.3742 14.6326 50.0473 13.7553 50.0473 12.6451C50.0473 11.9301 50.1813 11.3021 50.4495 10.7611C50.7176 10.2202 51.1034 9.79914 51.6067 9.49807C52.11 9.19701 52.7051 9.04647 53.3919 9.04647C54.3986 9.04647 55.1607 9.38046 55.6781 10.0485C56.1956 10.7165 56.4543 11.5679 56.4543 12.6028ZM51.8542 11.5019C51.7664 11.764 51.9858 12.0101 52.2623 12.0101H54.3924C54.6745 12.0101 54.8948 11.7549 54.8032 11.4881C54.7079 11.2105 54.5762 10.9847 54.408 10.8105C54.1446 10.5377 53.7918 10.4013 53.3496 10.4013C52.898 10.4013 52.5334 10.5424 52.2559 10.8246C52.079 11.0045 51.9451 11.2303 51.8542 11.5019ZM59.3602 11.5798C59.2608 11.6634 59.2063 11.7879 59.2063 11.9178V15.6162C59.2063 15.8693 59.0011 16.0745 58.748 16.0745H58.0839C57.8308 16.0745 57.6257 15.8693 57.6257 15.6162V9.68819C57.6257 9.4351 57.8308 9.22994 58.0839 9.22994H58.1795C58.3581 9.22994 58.5204 9.33371 58.5954 9.49582L58.7439 9.81704C58.8704 10.0905 59.2224 10.1697 59.471 9.99954C59.6849 9.85325 59.9141 9.71432 60.1588 9.58275C60.4483 9.42713 60.7141 9.32299 60.9562 9.27033C61.1608 9.22583 61.3453 9.37186 61.3971 9.57473L61.4875 9.92834C61.5616 10.2181 61.3395 10.5086 61.0538 10.5972C60.8647 10.6558 60.6628 10.7411 60.4482 10.8529C60.0573 11.0564 59.6947 11.2987 59.3602 11.5798ZM65.0272 12.631C64.7742 12.631 64.569 12.8362 64.569 13.0893V15.6162C64.569 15.8693 64.3638 16.0745 64.1107 16.0745H63.4466C63.1936 16.0745 62.9884 15.8693 62.9884 15.6162V6.93626C62.9884 6.68317 63.1936 6.47801 63.4466 6.47801H65.8532C66.9634 6.47801 67.8595 6.72497 68.5416 7.21891C69.2237 7.71285 69.5648 8.47727 69.5648 9.51218C69.5648 10.199 69.3884 10.7776 69.0356 11.248C68.6828 11.7184 68.2171 12.0665 67.6384 12.2923C67.0598 12.5181 66.4224 12.631 65.7262 12.631H65.0272ZM65.825 7.80458H65.0272C64.7742 7.80458 64.569 8.00974 64.569 8.26283V10.8603C64.569 11.1134 64.7742 11.3186 65.0272 11.3186H65.7968C66.4271 11.3186 66.9281 11.1775 67.2997 10.8952C67.6714 10.613 67.8713 10.1802 67.8995 9.59686C67.8995 8.94768 67.7231 8.48668 67.3703 8.21384C67.0175 7.941 66.5024 7.80458 65.825 7.80458ZM71.8529 10.7645C71.5982 10.8545 71.3107 10.7303 71.2245 10.4743L71.061 9.9892C70.9943 9.79141 71.0696 9.57159 71.2613 9.48908C71.4801 9.39493 71.7543 9.30855 72.0839 9.22994C72.5966 9.10763 73.0129 9.04647 73.3328 9.04647C73.8597 9.04647 74.3419 9.15467 74.7793 9.37106C75.2168 9.58745 75.5626 9.88146 75.8166 10.2531C76.0706 10.6247 76.1976 11.041 76.1976 11.502V15.6162C76.1976 15.8693 75.9925 16.0745 75.7394 16.0745H75.368C75.2311 16.0745 75.1091 15.9877 75.0642 15.8583V15.8583C74.9872 15.6364 74.7038 15.5679 74.5121 15.7035C74.3511 15.8174 74.1791 15.9175 73.9961 16.0039C73.6574 16.1639 73.3187 16.2438 72.98 16.2438C72.1897 16.2438 71.5899 16.0463 71.1807 15.6511C70.7714 15.256 70.5668 14.7291 70.5668 14.0705C70.5668 13.3837 70.7996 12.8521 71.2653 12.4758C71.7311 12.0995 72.3449 11.9113 73.107 11.9113H74.1355C74.3922 11.9113 74.6065 11.6982 74.5549 11.4468C74.4233 10.8062 74.0254 10.4859 73.361 10.4859C72.8808 10.4859 72.3781 10.5788 71.8529 10.7645ZM71.9498 14.0705C71.9498 14.3151 72.0392 14.5292 72.2179 14.7126C72.3967 14.8961 72.6413 14.9878 72.9518 14.9878C73.2434 14.9878 73.5351 14.9173 73.8268 14.7761C74.0651 14.6608 74.2845 14.511 74.4851 14.3266C74.5723 14.2464 74.6171 14.1314 74.6171 14.0129V13.428C74.6171 13.1749 74.4119 12.9697 74.1588 12.9697H73.0788C72.7307 12.9697 72.4555 13.0756 72.2532 13.2873C72.0509 13.499 71.9498 13.76 71.9498 14.0705ZM79.1471 16.6813L79.4378 15.9141C79.4778 15.8084 79.4774 15.6916 79.4365 15.5862L77.2467 9.93345C77.152 9.68897 77.2814 9.41501 77.5303 9.33279L78.1889 9.11528C78.424 9.03762 78.6783 9.16078 78.7631 9.3934L79.9295 12.5915C80.0761 12.9934 80.6446 12.9931 80.7907 12.591L81.9023 9.53169C81.9682 9.35054 82.1403 9.22994 82.333 9.22994H83.0098C83.3314 9.22994 83.553 9.55266 83.4374 9.85284L80.629 17.147C80.4408 17.6457 80.1044 18.0784 79.6199 18.4454C79.2386 18.7341 78.8268 18.95 78.3843 19.0931C78.1747 19.1609 77.9547 19.047 77.8672 18.8449L77.6507 18.3454C77.5498 18.1125 77.6581 17.8432 77.8875 17.7346C78.1587 17.6063 78.3881 17.4834 78.5756 17.3658C78.8531 17.1917 79.0437 16.9636 79.1471 16.6813Z" fill="#0F283C"/>
<path fill-rule="evenodd" clip-rule="evenodd" d="M3.74426 21.3495C8.73795 26.2168 16.829 26.2168 21.7595 21.3495L12.7835 12.4999L3.74426 21.3495Z" fill="#206AA2"/>
<path fill-rule="evenodd" clip-rule="evenodd" d="M3.74527 3.65039C-1.24842 8.51765 -1.24842 16.4823 3.74527 21.3495L12.7845 12.5L3.74527 3.65039Z" fill="#0F283C"/>
<path fill-rule="evenodd" clip-rule="evenodd" d="M21.7595 3.65045C16.829 -1.21682 8.73795 -1.21682 3.74426 3.65045L12.7835 12.5L21.7595 3.65045Z" fill="#DD0A35"/>
</svg>
